#!OML:ASF F:\VICON\USERDATA\INSTALL\rory3\rory3.ASF
:FULLY-SPECIFIED
:DEGREES
18
root -2.71268 18.1799 6.75614 176.415 -0.68703 -177.61
lowerback 18.9857 1.0952 -4.51126
upperback -0.932221 0.719354 3.98415
thorax -11.89 0.7104 6.86492
lowerneck -6.42828 -0.252663 -3.6503
upperneck 23.8518 -0.499226 -5.56287
head 8.46853 -1.8511 -1.40749
rclavicle -7.33018e-015 9.54166e-015
rhumerus -79.7586 -62.143 28.3746
rradius 60.8484
rwrist -69.3972
rhand -12.0866 1.21129
rfingers 7.12502
rthumb 13.9736 -28.2991
lclavicle -7.33018e-015 9.54166e-015
lhumerus -46.1591 9.71612 74.0481
lradius 45.8167
lwrist 8.14491
lhand -7.20808 53.1249
lfingers 7.12502
lthumb 18.6707 82.2489
rfemur -1.70868 5.08465 18.4462
rtibia 25.6907
rfoot -16.4389 -16.0027
rtoes 4.6118
lfemur -1.43366 -7.08717 -19.8116
ltibia 24.2495
lfoot -15.0315 8.06875
ltoes -10.0687
19
root -2.71208 18.1768 6.75767 176.483 -0.614446 -177.632
lowerback 18.804 1.07215 -4.51982
upperback -0.786718 0.683875 3.98794
thorax -11.614 0.676761 6.87567
lowerneck -6.74756 -0.288778 -3.59764
upperneck 23.5616 -0.479392 -5.50049
head 8.42851 -1.79431 -1.3867
rclavicle -1.19271e-015 -1.59028e-015
rhumerus -79.117 -61.8751 27.5784
rradius 61.0774
rwrist -69.1146
rhand -12.1236 1.36231
rfingers 7.12502
rthumb 13.9379 -28.1505
lclavicle -1.19271e-015 -1.59028e-015
lhumerus -45.9633 9.75101 74.0394
lradius 45.675
lwrist 8.18899
lhand -7.11215 52.8655
lfingers 7.12502
lthumb 18.763 81.9806
rfemur -1.83292 4.92766 18.3829
rtibia 25.7727
rfoot -16.4187 -15.8835
rtoes 4.20744
lfemur -1.4618 -7.0737 -19.8191
ltibia 24.2401
lfoot -15.1555 8.02861
ltoes -9.29058
20
root -2.7091 18.1752 6.76233 176.556 -0.568387 -177.738
lowerback 18.7252 1.03954 -4.62712
upperback -0.67154 0.612428 3.99673
thorax -11.4286 0.637264 6.96367
lowerneck -6.63027 -2.54041 -3.25162
upperneck 22.558 0.0183878 -6.23282
head 8.09588 -0.189952 -1.42876
rclavicle 4.00054e-015 7.95139e-016
rhumerus -78.4303 -61.737 26.8623
rradius 61.2217
rwrist -68.5858
rhand -11.5884 1.55773
rfingers 7.12502
rthumb 14.4536 -27.9189
lclavicle 4.00054e-015 7.95139e-016
lhumerus -45.7006 10.0061 74.0277
lradius 45.4345
lwrist 8.19399
lhand -7.24833 52.8944
lfingers 7.12502
lthumb 18.632 82.0221
rfemur -2.03052 4.97014 18.261
rtibia 25.9029
rfoot -16.4662 -16.0474
rtoes 4.18342
lfemur -1.5203 -7.04192 -19.9128
ltibia 24.222
lfoot -15.1247 8.00448
ltoes -9.16269
21
root -2.70417 18.1756 6.77253 176.649 -0.575468 -177.796
lowerback 18.7785 1.02027 -4.70488
upperback -0.579893 0.562637 4.03696
thorax -11.3492 0.61093 7.06842
lowerneck -6.43682 -2.62294 -3.34073
upperneck 21.6097 -0.281142 -6.25971
head 7.73765 -0.360364 -1.44126
rclavicle -1.73937e-015 1.74931e-014
rhumerus -77.6895 -61.5664 26.1445
rradius 61.36
rwrist -68.1394
rhand -10.9838 1.81905
rfingers 7.12502
rthumb 15.0361 -27.615
lclavicle -1.73937e-015 1.74931e-014
lhumerus -45.6087 10.113 74.0945
lradius 45.476
lwrist 8.28152
lhand -7.39976 52.8389
lfingers 7.12502
lthumb 18.4863 81.9805
rfemur -2.27352 4.9906 18.1981
rtibia 26.04
rfoot -16.5057 -16.0614
rtoes 4.59351
lfemur -1.66272 -6.99673 -19.9285
ltibia 24.2076
lfoot -15.0233 7.9217
ltoes -9.53891
22
root -2.70254 18.1737 6.7768 176.728 -0.614069 -177.84
lowerback 18.8104 0.949375 -4.68345
upperback -0.529733 0.46634 4.03308
thorax -11.2946 0.558665 7.07819
lowerneck -6.16542 -2.79486 -3.84434
upperneck 20.6754 -0.720907 -5.91615
head 7.38018 -0.595886 -1.27267
rclavicle -4.87022e-015 7.95139e-015
rhumerus -76.2416 -60.9312 24.6052
rradius 61.5444
rwrist -68.1051
rhand -10.6825 2.076
rfingers 7.12502
rthumb 15.3264 -27.3361
lclavicle -4.87022e-015 7.95139e-015
lhumerus -45.8362 9.97545 74.1136
lradius 45.8942
lwrist 8.62791
lhand -7.49439 53.1829
lfingers 7.12502
lthumb 18.3953 82.3332
rfemur -2.44897 4.88049 18.1224
rtibia 26.1721
rfoot -16.5561 -15.8864
rtoes 4.63385
lfemur -1.77748 -7.07084 -19.9692
ltibia 24.2105
lfoot -14.9797 7.95268
ltoes -9.81909
23
root -2.69924 18.1738 6.78045 176.751 -0.567891 -177.888
lowerback 18.9633 0.924114 -4.71205
upperback -0.512008 0.418616 4.05443
thorax -11.355 0.538768 7.13715
lowerneck -5.55707 -2.76969 -3.63932
upperneck 19.5194 -0.883311 -6.13871
head 6.88639 -0.67132 -1.37552
rclavicle -1.05853e-014 2.70347e-014
rhumerus -74.7335 -60.1344 23.0485
rradius 61.8
rwrist -67.9808
rhand -10.4465 2.06157
rfingers 7.12502
rthumb 15.5537 -27.333
lclavicle -1.05853e-014 2.70347e-014
lhumerus -46.1159 9.86479 74.1556
lradius 46.3445
lwrist 8.82421
lhand -7.51546 53.7358
lfingers 7.12502
lthumb 18.375 82.8879
rfemur -2.56933 4.73386 18.0419
rtibia 26.3088
rfoot -16.6266 -15.6716
rtoes 4.56547
lfemur -1.81209 -7.08925 -20.0106
ltibia 24.1979
lfoot -14.9753 8.01163
ltoes -9.69739
